<svg width="20" height="20" viewBox="0 0 20 20" fill="none" xmlns="http://www.w3.org/2000/svg">
<path d="M0 10C0 4.47715 4.47715 0 10 0C15.5228 0 20 4.47715 20 10C20 15.5228 15.5228 20 10 20C4.47715 20 0 15.5228 0 10Z" fill="#7D7D7D"/>
<g clip-path="url(#clip0_5705_41697)">
<path d="M12.043 13.5863C11.9436 13.5863 11.8542 13.5177 11.8316 13.4169C11.8051 13.3001 11.8785 13.1838 11.9957 13.1573C13.9221 12.7227 15.2298 11.6238 15.8824 9.89103C16.3747 8.58331 16.2918 7.38413 16.2909 7.37197C16.2818 7.25258 16.3717 7.14837 16.4911 7.13926C16.6109 7.13057 16.7147 7.21958 16.7238 7.33898C16.7277 7.39108 16.8159 8.6328 16.2944 10.0287C15.8099 11.326 14.6871 12.9949 12.0912 13.581C12.0751 13.5845 12.0591 13.5863 12.0435 13.5863H12.043Z" fill="#040404"/>
<path d="M11.7419 14.2141C11.3746 14.2141 10.9847 14.1816 10.571 14.1104C10.4529 14.0899 10.3734 13.9775 10.3938 13.8594C10.4142 13.7413 10.5262 13.6623 10.6448 13.6823C12.5907 14.0179 14.2193 13.5029 15.4853 12.1522C16.441 11.1324 16.823 9.99268 16.8269 9.98139C16.8643 9.86764 16.9871 9.80555 17.1009 9.84289C17.2146 9.88023 17.2767 10.0027 17.2394 10.1164C17.2233 10.1663 16.8295 11.3473 15.8136 12.4371C15.0182 13.2902 13.7035 14.2141 11.7419 14.2141Z" fill="#040404"/>
<path d="M12.1295 14.9966C11.1848 14.9966 10.1102 14.7417 8.96441 14.0179C8.86325 13.9537 8.83286 13.82 8.89668 13.7184C8.9605 13.6172 9.09466 13.5868 9.19626 13.6506C10.8709 14.7087 12.5771 14.8537 14.2682 14.0831C15.5378 13.5043 16.3162 12.6065 16.324 12.5973C16.4022 12.5062 16.539 12.4957 16.6301 12.5739C16.7213 12.652 16.7317 12.7888 16.6536 12.88C16.6197 12.9199 15.8039 13.8603 14.4484 14.4782C13.8302 14.7599 13.04 14.9966 12.1295 14.9966Z" fill="#040404"/>
<path d="M12.1913 15.8456C10.8232 15.8456 8.97232 15.3823 7.51524 13.3179C7.44621 13.2197 7.46965 13.0843 7.56734 13.0152C7.66546 12.9462 7.80092 12.9697 7.86996 13.0673C9.01226 14.6855 10.5332 15.4718 12.3905 15.4075C13.7847 15.3585 14.8479 14.827 14.8584 14.8214C14.9652 14.7671 15.0959 14.8097 15.1501 14.9169C15.2044 15.0237 15.1619 15.1544 15.0546 15.2087C15.0082 15.2325 13.8945 15.7892 12.4057 15.8413C12.3358 15.8439 12.2642 15.8452 12.1913 15.8452V15.8456Z" fill="#040404"/>
<path d="M12.4137 16.757C11.9657 16.757 11.0226 16.7032 9.99627 16.3198C8.69897 15.8353 7.03001 14.7125 6.44388 12.1166C6.4174 11.9998 6.49077 11.8835 6.608 11.857C6.72479 11.8305 6.84115 11.9039 6.86763 12.0211C7.30224 13.9475 8.40113 15.2552 10.1339 15.9078C11.4416 16.4001 12.6408 16.3172 12.653 16.3163C12.7724 16.3072 12.8766 16.3971 12.8857 16.5165C12.8948 16.6359 12.8054 16.7401 12.686 16.7492C12.6721 16.7501 12.5752 16.757 12.4142 16.757H12.4137Z" fill="#040404"/>
<path d="M9.97654 17.2755C9.95397 17.2755 9.93139 17.2721 9.90925 17.2647C9.85932 17.2486 8.67837 16.8548 7.58861 15.8389C6.57569 14.8945 5.46291 13.2186 5.91531 10.5962C5.93572 10.4781 6.04773 10.3991 6.16626 10.4191C6.28436 10.4395 6.36381 10.552 6.3434 10.6701C6.00779 12.616 6.52272 14.2446 7.87342 15.5106C8.89285 16.4662 10.033 16.8483 10.0443 16.8522C10.158 16.8895 10.2201 17.0124 10.1828 17.1262C10.1528 17.2178 10.0677 17.2755 9.97654 17.2755Z" fill="#040404"/>
<path d="M7.28702 16.7311C7.2371 16.7311 7.18673 16.7141 7.14592 16.679C7.10598 16.6451 6.16556 15.8293 5.54774 14.4738C4.97333 13.2138 4.58692 11.2397 6.00796 8.9898C6.07222 8.88864 6.20594 8.85825 6.30754 8.92207C6.4087 8.98633 6.43909 9.12005 6.37527 9.22165C5.32067 10.891 5.17305 12.593 5.93675 14.2793C6.51333 15.5523 7.41988 16.3416 7.429 16.3494C7.51974 16.4276 7.53016 16.5648 7.45201 16.6555C7.40903 16.7055 7.34824 16.7311 7.28702 16.7311Z" fill="#040404"/>
<path d="M5.01067 15.199C4.93165 15.199 4.85523 15.1556 4.81703 15.08C4.79358 15.0331 4.23654 13.9199 4.18444 12.4311C4.13581 11.047 4.53438 9.07542 6.70827 7.54063C6.8064 7.4716 6.94186 7.49504 7.01089 7.59273C7.07992 7.69085 7.05648 7.82631 6.95879 7.89535C5.34541 9.03418 4.55783 10.5499 4.61818 12.4003C4.66333 13.797 5.19953 14.8733 5.20474 14.8838C5.25858 14.9906 5.21603 15.1213 5.10879 15.1755C5.07753 15.1916 5.04366 15.199 5.0111 15.199H5.01067Z" fill="#040404"/>
<path d="M3.49369 12.9119C3.38124 12.9119 3.28615 12.8255 3.27747 12.7113C3.27356 12.6592 3.18543 11.4175 3.70687 10.0217C4.1914 8.72436 5.31417 7.0554 7.91007 6.46927C8.02687 6.44279 8.14322 6.51616 8.16971 6.63339C8.19619 6.75018 8.12282 6.86654 8.00559 6.89302C6.07353 7.32893 4.76407 8.43303 4.11368 10.1736C3.62524 11.4805 3.70947 12.6662 3.71077 12.6779C3.71989 12.7973 3.63045 12.9019 3.51106 12.9111C3.50541 12.9111 3.49977 12.9115 3.49412 12.9115L3.49369 12.9119Z" fill="#040404"/>
<path d="M2.96709 10.2189C2.94451 10.2189 2.92193 10.2154 2.89936 10.208C2.7856 10.1707 2.72352 10.0482 2.76086 9.93449C2.77692 9.88456 3.17071 8.70362 4.18667 7.61385C5.13099 6.60093 6.80689 5.48858 9.42928 5.94056C9.54738 5.96096 9.62683 6.07341 9.60643 6.19151C9.58602 6.3096 9.474 6.38862 9.35548 6.36865C7.40952 6.03303 5.78095 6.54796 4.51491 7.89867C3.5593 8.9181 3.17723 10.0582 3.17332 10.0695C3.14336 10.1607 3.05826 10.2189 2.96709 10.2189Z" fill="#040404"/>
<path d="M3.51174 7.5295C3.46181 7.5295 3.41144 7.51213 3.37063 7.47697C3.27989 7.39882 3.26904 7.26205 3.34719 7.17131C3.38105 7.13137 4.19686 6.19095 5.55234 5.57313C6.8123 4.99872 8.78648 4.61231 11.0363 6.03335C11.1375 6.09761 11.1679 6.23133 11.1041 6.33293C11.0403 6.43409 10.9061 6.46448 10.8045 6.40066C9.13512 5.34606 7.43317 5.19844 5.74685 5.96214C4.47386 6.53829 3.68454 7.44527 3.67672 7.45439C3.63374 7.50432 3.57295 7.52993 3.51217 7.52993L3.51174 7.5295Z" fill="#040404"/>
<path d="M12.3074 7.07531C12.2393 7.07531 12.172 7.04318 12.1298 6.98326C10.991 5.36988 9.47489 4.58273 7.62489 4.64221C6.22816 4.68737 5.15185 5.22357 5.14143 5.22878C5.03419 5.28262 4.90394 5.24007 4.84967 5.13326C4.7954 5.02646 4.83838 4.89577 4.94519 4.8415C4.99208 4.81762 6.10529 4.26101 7.59406 4.20891C8.97733 4.15985 10.9498 4.55885 12.4846 6.73275C12.5536 6.83087 12.5302 6.96633 12.4325 7.03536C12.3943 7.06228 12.3508 7.07531 12.3074 7.07531Z" fill="#040404"/>
<path d="M13.3434 8.19933C13.244 8.19933 13.1545 8.13073 13.132 8.03C12.6974 6.10359 11.5985 4.79587 9.86569 4.14331C8.55797 3.65096 7.35836 3.73389 7.34664 3.73475C7.22767 3.74431 7.12304 3.654 7.11392 3.5346C7.1048 3.4152 7.19424 3.311 7.31364 3.30189C7.36574 3.29798 8.60747 3.20984 10.0033 3.73128C11.3006 4.21582 12.9696 5.33858 13.5557 7.93449C13.5822 8.05128 13.5088 8.16764 13.3916 8.19412C13.3755 8.19759 13.3595 8.19933 13.3438 8.19933H13.3434Z" fill="#040404"/>
<path d="M13.8713 9.63486C13.8592 9.63486 13.8466 9.63399 13.834 9.63182C13.7159 9.61141 13.6365 9.49896 13.6569 9.38087C13.9925 7.43491 13.4776 5.80634 12.1269 4.5403C11.1074 3.58469 9.96729 3.20262 9.956 3.19871C9.84224 3.16137 9.78016 3.0385 9.8175 2.92475C9.85484 2.81099 9.97727 2.74891 10.091 2.78625C10.141 2.80231 11.3219 3.1961 12.4117 4.21206C13.4246 5.15639 14.5374 6.83228 14.085 9.45468C14.0667 9.56018 13.9751 9.63486 13.8713 9.63486Z" fill="#040404"/>
<path d="M13.8089 11.1629C13.7694 11.1629 13.7291 11.152 13.693 11.1295C13.5919 11.0652 13.5615 10.9315 13.6253 10.8299C14.6799 9.16051 14.8275 7.45856 14.0638 5.77224C13.4872 4.49925 12.5807 3.70993 12.5716 3.70211C12.4808 3.62396 12.4704 3.48676 12.5485 3.39602C12.6267 3.30528 12.7635 3.29443 12.8546 3.37258C12.8946 3.40644 13.835 4.22225 14.4528 5.57773C15.0272 6.83769 15.4136 8.81187 13.9926 11.0617C13.9513 11.1269 13.881 11.1629 13.8089 11.1629Z" fill="#040404"/>
<path d="M13.1674 12.5499C13.0993 12.5499 13.032 12.5178 12.9898 12.4579C12.9208 12.3597 12.9443 12.2243 13.0419 12.1552C14.6553 11.0164 15.4429 9.50072 15.3826 7.65028C15.3374 6.25355 14.8012 5.17724 14.796 5.16682C14.7422 5.06002 14.7847 4.92933 14.892 4.87506C14.9988 4.82079 15.1294 4.86377 15.1837 4.97058C15.2072 5.01747 15.7642 6.13068 15.8163 7.61945C15.8649 9.00359 15.4664 10.9752 13.2925 12.51C13.2543 12.5369 13.2108 12.5499 13.1674 12.5499Z" fill="#040404"/>
</g>
<defs>
<clipPath id="clip0_5705_41697">
<rect width="14.5" height="14.5" fill="white" transform="translate(2.75 2.77539)"/>
</clipPath>
</defs>
</svg>
