<svg width="191" height="30" viewBox="0 0 191 30" fill="none" xmlns="http://www.w3.org/2000/svg">
<path d="M0 15C0 6.71573 6.71573 0 15 0C23.2843 0 30 6.71573 30 15C30 23.2843 23.2843 30 15 30C6.71573 30 0 23.2843 0 15Z" fill="#BFF009"/>
<g clip-path="url(#clip0_1490_16854)">
<path d="M18.0645 20.3794C17.9153 20.3794 17.7812 20.2765 17.7473 20.1254C17.7076 19.9502 17.8177 19.7757 17.9935 19.7359C20.8831 19.084 22.8447 17.4357 23.8235 14.8365C24.5621 12.875 24.4377 11.0762 24.4364 11.058C24.4227 10.8789 24.5575 10.7226 24.7366 10.7089C24.9163 10.6959 25.072 10.8294 25.0857 11.0085C25.0915 11.0866 25.2237 12.9492 24.4416 15.043C23.7148 16.9889 22.0306 19.4924 18.1368 20.3716C18.1127 20.3768 18.0886 20.3794 18.0651 20.3794H18.0645Z" fill="#040404"/>
<path d="M17.6125 21.3212C17.0616 21.3212 16.4767 21.2723 15.8561 21.1655C15.6789 21.1349 15.5598 20.9662 15.5904 20.7891C15.621 20.612 15.789 20.4934 15.9668 20.5234C18.8857 21.0268 21.3286 20.2544 23.2276 18.2284C24.6611 16.6986 25.2342 14.989 25.24 14.9721C25.296 14.8015 25.4803 14.7083 25.651 14.7643C25.8216 14.8203 25.9147 15.004 25.8587 15.1746C25.8346 15.2495 25.2439 17.0209 23.72 18.6556C22.5269 19.9353 20.5549 21.3212 17.6125 21.3212Z" fill="#040404"/>
<path d="M18.1941 22.4948C16.777 22.4948 15.1651 22.1126 13.4464 21.0269C13.2947 20.9305 13.2491 20.7299 13.3448 20.5776C13.4406 20.4258 13.6418 20.3802 13.7942 20.476C16.3061 22.0631 18.8655 22.2806 21.4022 21.1246C23.3065 20.2565 24.4742 18.9097 24.4859 18.896C24.6031 18.7592 24.8082 18.7436 24.945 18.8608C25.0818 18.9781 25.0974 19.1832 24.9802 19.32C24.9294 19.3799 23.7057 20.7905 21.6725 21.7172C20.7451 22.1399 19.5598 22.4948 18.1941 22.4948Z" fill="#040404"/>
<path d="M18.2866 23.7674C16.2345 23.7674 13.4582 23.0725 11.2725 19.9758C11.169 19.8286 11.2042 19.6254 11.3507 19.5219C11.4979 19.4183 11.7011 19.4535 11.8046 19.6C13.5181 22.0273 15.7994 23.2067 18.5855 23.1103C20.6767 23.0367 22.2716 22.2396 22.2872 22.2311C22.4474 22.1497 22.6435 22.2135 22.7249 22.3744C22.8063 22.5346 22.7425 22.7306 22.5816 22.812C22.5119 22.8478 20.8414 23.6828 18.6083 23.7609C18.5034 23.7648 18.396 23.7668 18.2866 23.7668V23.7674Z" fill="#040404"/>
<path d="M18.6213 25.1346C17.9492 25.1346 16.5347 25.0538 14.9951 24.4787C13.0492 23.7519 10.5457 22.0678 9.66654 18.1739C9.62682 17.9987 9.73688 17.8242 9.91272 17.7845C10.0879 17.7448 10.2624 17.8548 10.3022 18.0307C10.9541 20.9203 12.6024 22.8819 15.2016 23.8607C17.1632 24.5992 18.9619 24.4748 18.9802 24.4735C19.1593 24.4599 19.3156 24.5947 19.3292 24.7738C19.3429 24.9529 19.2087 25.1092 19.0297 25.1228C19.0088 25.1241 18.8636 25.1346 18.622 25.1346H18.6213Z" fill="#040404"/>
<path d="M14.9645 25.9128C14.9306 25.9128 14.8968 25.9076 14.8636 25.8965C14.7887 25.8724 13.0173 25.2817 11.3826 23.7578C9.86322 22.3413 8.19405 19.8275 8.87266 15.8939C8.90327 15.7167 9.0713 15.5982 9.24909 15.6282C9.42623 15.6588 9.54541 15.8274 9.5148 16.0046C9.01138 18.9235 9.78377 21.3664 11.8098 23.2654C13.339 24.6989 15.0492 25.272 15.0661 25.2778C15.2367 25.3338 15.3299 25.5181 15.2739 25.6888C15.2289 25.8262 15.1013 25.9128 14.9645 25.9128Z" fill="#040404"/>
<path d="M10.93 25.0961C10.8551 25.0961 10.7795 25.0707 10.7183 25.018C10.6584 24.9672 9.24778 23.7435 8.32104 21.7102C7.45943 19.8203 6.87981 16.859 9.01137 13.4842C9.10776 13.3325 9.30834 13.2869 9.46074 13.3826C9.61248 13.479 9.65807 13.6796 9.56233 13.832C7.98043 16.3361 7.75901 18.889 8.90457 21.4185C9.76943 23.328 11.1293 24.5119 11.1429 24.5237C11.279 24.6409 11.2947 24.8467 11.1774 24.9828C11.113 25.0577 11.0218 25.0961 10.93 25.0961Z" fill="#040404"/>
<path d="M7.51543 22.7975C7.39691 22.7975 7.28228 22.7323 7.22497 22.619C7.18981 22.5487 6.35424 20.8789 6.27609 18.6457C6.20315 16.5695 6.80101 13.6122 10.0618 11.31C10.209 11.2064 10.4122 11.2416 10.5158 11.3881C10.6193 11.5353 10.5842 11.7385 10.4376 11.842C8.01755 13.5503 6.83617 15.8238 6.9267 18.5995C6.99443 20.6946 7.79873 22.309 7.80655 22.3247C7.8873 22.4849 7.82348 22.6809 7.66262 22.7623C7.61573 22.7864 7.56493 22.7975 7.51608 22.7975H7.51543Z" fill="#040404"/>
<path d="M5.23995 19.3674C5.07128 19.3674 4.92865 19.2378 4.91563 19.0665C4.90977 18.9884 4.77756 17.1258 5.55972 15.032C6.28652 13.086 7.97067 10.5826 11.8645 9.70342C12.0397 9.6637 12.2143 9.77376 12.254 9.9496C12.2937 10.1248 12.1836 10.2993 12.0078 10.339C9.10972 10.9929 7.14553 12.6491 6.16995 15.2599C5.43728 17.2202 5.56363 18.9988 5.56558 19.0164C5.57926 19.1955 5.4451 19.3524 5.266 19.3661C5.25754 19.3661 5.24907 19.3668 5.2406 19.3668L5.23995 19.3674Z" fill="#040404"/>
<path d="M4.45063 15.3278C4.41677 15.3278 4.3829 15.3226 4.34904 15.3115C4.17841 15.2555 4.08528 15.0719 4.14128 14.9013C4.16538 14.8264 4.75607 13.0549 6.28001 11.4203C7.69649 9.90091 10.2103 8.23239 14.1439 8.91035C14.3211 8.94096 14.4402 9.10963 14.4096 9.28677C14.379 9.46391 14.211 9.58244 14.0332 9.55249C11.1143 9.04906 8.67142 9.82145 6.77236 11.8475C5.33895 13.3767 4.76584 15.0869 4.75998 15.1038C4.71504 15.2406 4.5874 15.3278 4.45063 15.3278Z" fill="#040404"/>
<path d="M5.2673 11.2933C5.19241 11.2933 5.11686 11.2672 5.05564 11.2145C4.91953 11.0972 4.90325 10.8921 5.02047 10.756C5.07127 10.6961 6.29498 9.28545 8.3282 8.35871C10.2181 7.4971 13.1794 6.91748 16.5542 9.04905C16.706 9.14543 16.7515 9.34602 16.6558 9.49841C16.5601 9.65016 16.3588 9.69574 16.2064 9.60001C13.7024 8.01811 11.1494 7.79668 8.61997 8.94224C6.71048 9.80646 5.5265 11.1669 5.51478 11.1806C5.4503 11.2555 5.35913 11.2939 5.26795 11.2939L5.2673 11.2933Z" fill="#040404"/>
<path d="M18.4618 10.6125C18.3595 10.6125 18.2586 10.5643 18.1954 10.4744C16.4871 8.05434 14.213 6.87361 11.438 6.96283C9.34287 7.03056 7.7284 7.83487 7.71277 7.84268C7.55191 7.92344 7.35654 7.85961 7.27513 7.6994C7.19372 7.5392 7.2582 7.34317 7.41841 7.26176C7.48874 7.22594 9.15856 6.39103 11.3917 6.31288C13.4666 6.23929 16.4253 6.83779 18.7275 10.0986C18.831 10.2458 18.7959 10.449 18.6493 10.5526C18.592 10.5929 18.5269 10.6125 18.4618 10.6125Z" fill="#040404"/>
<path d="M20.0157 12.2985C19.8665 12.2985 19.7324 12.1956 19.6985 12.0445C19.0466 9.1549 17.3983 7.19331 14.7991 6.21447C12.8375 5.47595 11.0381 5.60034 11.0205 5.60164C10.8421 5.61597 10.6851 5.48051 10.6714 5.30141C10.6578 5.12232 10.7919 4.96602 10.971 4.95234C11.0492 4.94648 12.9118 4.81427 15.0055 5.59643C16.9515 6.32323 19.4549 8.00738 20.3341 11.9012C20.3738 12.0764 20.2638 12.251 20.0879 12.2907C20.0638 12.2959 20.0398 12.2985 20.0163 12.2985H20.0157Z" fill="#040404"/>
<path d="M20.8076 14.4518C20.7893 14.4518 20.7705 14.4505 20.7516 14.4472C20.5744 14.4166 20.4552 14.248 20.4859 14.0708C20.9893 11.1519 20.2169 8.70902 18.1908 6.80996C16.6617 5.37654 14.9515 4.80344 14.9345 4.79758C14.7639 4.74157 14.6708 4.55726 14.7268 4.38663C14.7828 4.216 14.9665 4.12287 15.1371 4.17888C15.212 4.20298 16.9834 4.79367 18.618 6.31761C20.1374 7.73409 21.8066 10.2479 21.128 14.1815C21.1006 14.3398 20.9632 14.4518 20.8076 14.4518Z" fill="#040404"/>
<path d="M20.7138 16.7434C20.6545 16.7434 20.594 16.7271 20.5399 16.6932C20.3882 16.5968 20.3426 16.3963 20.4383 16.2439C22.0202 13.7398 22.2416 11.1869 21.0961 8.65738C20.2312 6.7479 18.8714 5.56391 18.8577 5.55219C18.7216 5.43497 18.706 5.22917 18.8232 5.09306C18.9404 4.95694 19.1456 4.94066 19.2823 5.05789C19.3422 5.10869 20.7529 6.3324 21.6796 8.36562C22.5412 10.2556 23.1208 13.2168 20.9893 16.5916C20.9274 16.6893 20.8219 16.7434 20.7138 16.7434Z" fill="#040404"/>
<path d="M19.7512 18.8248C19.649 18.8248 19.5481 18.7767 19.4849 18.6868C19.3813 18.5396 19.4165 18.3364 19.563 18.2329C21.9831 16.5246 23.1645 14.2511 23.074 11.4754C23.0062 9.38033 22.2019 7.76587 22.1941 7.75024C22.1133 7.59003 22.1772 7.394 22.338 7.31259C22.4982 7.23118 22.6943 7.29566 22.7757 7.45587C22.8108 7.5262 23.6464 9.19602 23.7246 11.4292C23.7975 13.5054 23.1996 16.4627 19.9388 18.7649C19.8815 18.8053 19.8164 18.8248 19.7512 18.8248Z" fill="#040404"/>
</g>
<g clip-path="url(#clip1_1490_16854)">
<path d="M87.3969 11.21H83.4883V25.4014H87.3969V11.21Z" fill="#BFF009"/>
<path d="M102.002 11.0625C97.992 11.0575 95.1885 13.6406 94.6881 17.304C94.274 20.1655 95.4205 23.2522 97.9175 24.7435C100.146 26.1469 103.631 26.0541 105.513 24.1072V25.3996H109.392V18.4506C109.392 14.3697 106.083 11.0625 102.002 11.0625ZM102.002 22.051C100.013 22.051 98.403 20.4389 98.403 18.4523C98.403 16.4656 100.015 14.8535 102.002 14.8535C103.988 14.8535 105.601 16.4656 105.601 18.4523C105.601 20.4389 103.988 22.051 102.002 22.051Z" fill="#BFF009"/>
<path d="M68.1 9.50501C68.1 8.64674 68.7991 7.94753 69.6574 7.94753H72.4442V4.1582H69.6574C66.7048 4.1582 64.3106 6.55242 64.3106 9.50501C64.3106 10.2755 64.4746 11.0078 64.7679 11.6689C62.4748 12.6382 60.9521 14.6977 60.5974 17.304C60.1833 20.1655 61.3299 23.2523 63.8268 24.7435C66.0553 26.1469 69.5398 26.0541 71.422 24.1072V25.3996H75.3008V11.0625H69.659C68.8007 11.0625 68.1 10.3633 68.1 9.50501ZM71.5081 14.8535V18.4522C71.5081 20.4405 69.8959 22.0511 67.9094 22.0511C65.9227 22.0511 64.3106 20.4389 64.3106 18.4522C64.3106 16.4657 65.9227 14.8535 67.9094 14.8535H71.5081Z" fill="#BFF009"/>
<path d="M85.4564 4.1582C84.8284 4.1582 84.3098 4.3736 83.8989 4.80439C83.488 5.23519 83.2826 5.75546 83.2826 6.36188C83.2826 6.9683 83.488 7.51342 83.8989 7.93428C84.3098 8.35512 84.8284 8.56555 85.4564 8.56555C86.0843 8.56555 86.6261 8.35512 87.0288 7.93428C87.4297 7.51342 87.6319 6.98984 87.6319 6.36188C87.6319 5.73392 87.4314 5.23519 87.0288 4.80439C86.6278 4.3736 86.1026 4.1582 85.4564 4.1582Z" fill="#BFF009"/>
<path d="M51.61 11.21L46.694 16.4706H45.849V16.0348V4.1582H42V25.4013H45.849V20.1406H46.694L51.61 25.4013H56.3107L49.6598 18.3047L56.3107 11.21H51.61Z" fill="#BFF009"/>
</g>
<path d="M119.694 26V6.4H128.206C129.494 6.4 130.605 6.63333 131.538 7.1C132.49 7.56667 133.228 8.22933 133.75 9.088C134.273 9.928 134.534 10.9173 134.534 12.056C134.534 13.1947 134.273 14.1933 133.75 15.052C133.228 15.892 132.49 16.5547 131.538 17.04C130.586 17.5067 129.476 17.74 128.206 17.74H121.85V26H119.694ZM121.85 15.864H128.038C129.364 15.864 130.418 15.528 131.202 14.856C131.986 14.1653 132.378 13.2413 132.378 12.084C132.378 10.9267 131.986 10.012 131.202 9.34C130.418 8.668 129.364 8.332 128.038 8.332H121.85V15.864ZM142.287 26.28C140.962 26.28 139.749 25.9627 138.647 25.328C137.565 24.6747 136.706 23.7973 136.071 22.696C135.437 21.5947 135.119 20.3627 135.119 19C135.119 17.6373 135.437 16.4053 136.071 15.304C136.706 14.2027 137.565 13.3347 138.647 12.7C139.749 12.0467 140.962 11.72 142.287 11.72C143.631 11.72 144.845 12.0467 145.927 12.7C147.01 13.3347 147.869 14.2027 148.503 15.304C149.138 16.4053 149.455 17.6373 149.455 19C149.455 20.3627 149.138 21.5947 148.503 22.696C147.869 23.7973 147.01 24.6747 145.927 25.328C144.845 25.9627 143.631 26.28 142.287 26.28ZM142.287 24.432C143.239 24.432 144.098 24.1893 144.863 23.704C145.647 23.2187 146.263 22.5653 146.711 21.744C147.178 20.9227 147.411 20.008 147.411 19C147.411 17.9733 147.178 17.0587 146.711 16.256C146.263 15.4347 145.647 14.7813 144.863 14.296C144.098 13.8107 143.239 13.568 142.287 13.568C141.335 13.568 140.467 13.8107 139.683 14.296C138.918 14.7813 138.302 15.4347 137.835 16.256C137.387 17.0587 137.163 17.9733 137.163 19C137.163 20.008 137.387 20.9227 137.835 21.744C138.302 22.5653 138.918 23.2187 139.683 23.704C140.467 24.1893 141.335 24.432 142.287 24.432ZM152.334 26V11.972H154.406V13.96C154.835 13.232 155.376 12.672 156.03 12.28C156.702 11.8693 157.467 11.664 158.326 11.664C158.811 11.664 159.25 11.7293 159.642 11.86V13.764C159.399 13.6707 159.156 13.6053 158.914 13.568C158.671 13.5307 158.428 13.512 158.186 13.512C157.327 13.512 156.571 13.764 155.918 14.268C155.283 14.7533 154.779 15.4627 154.406 16.396V26H152.334ZM167.529 26.28C166.316 26.28 165.383 25.9907 164.729 25.412C164.076 24.8333 163.749 23.9933 163.749 22.892V13.736H160.725V11.972H163.749V8.416L165.793 7.884V11.972H170.021V13.736H165.793V22.36C165.793 23.1067 165.961 23.648 166.297 23.984C166.633 24.3013 167.184 24.46 167.949 24.46C168.341 24.46 168.687 24.432 168.985 24.376C169.303 24.32 169.639 24.2267 169.993 24.096V25.916C169.639 26.0467 169.237 26.14 168.789 26.196C168.36 26.252 167.94 26.28 167.529 26.28ZM176.664 26.252C175.637 26.252 174.732 26.0747 173.948 25.72C173.183 25.3653 172.576 24.8707 172.128 24.236C171.699 23.6013 171.484 22.864 171.484 22.024C171.484 20.6987 171.988 19.6533 172.996 18.888C174.004 18.1227 175.367 17.74 177.084 17.74C178.596 17.74 179.968 18.0573 181.2 18.692V16.844C181.2 15.724 180.883 14.884 180.248 14.324C179.613 13.7453 178.689 13.456 177.476 13.456C176.785 13.456 176.085 13.5587 175.376 13.764C174.685 13.9507 173.92 14.2587 173.08 14.688L172.296 13.092C173.304 12.6067 174.237 12.252 175.096 12.028C175.955 11.804 176.813 11.692 177.672 11.692C179.445 11.692 180.808 12.112 181.76 12.952C182.731 13.792 183.216 14.996 183.216 16.564V26H181.2V24.628C180.565 25.1693 179.865 25.58 179.1 25.86C178.353 26.1213 177.541 26.252 176.664 26.252ZM173.472 21.968C173.472 22.752 173.799 23.396 174.452 23.9C175.124 24.3853 175.983 24.628 177.028 24.628C177.868 24.628 178.633 24.4973 179.324 24.236C180.015 23.9747 180.64 23.564 181.2 23.004V20.372C180.621 19.98 180.005 19.7 179.352 19.532C178.699 19.3453 177.961 19.252 177.14 19.252C176.02 19.252 175.124 19.504 174.452 20.008C173.799 20.4933 173.472 21.1467 173.472 21.968ZM186.677 26V6.4L188.749 5.924V26H186.677Z" fill="white"/>
<defs>
<clipPath id="clip0_1490_16854">
<rect width="21.75" height="21.75" fill="white" transform="translate(4.125 4.1626)"/>
</clipPath>
<clipPath id="clip1_1490_16854">
<rect width="67.5385" height="21.6923" fill="white" transform="translate(42 4.15381)"/>
</clipPath>
</defs>
</svg>
